<!-- Generator: Adobe Illustrator 19.0.0, SVG Export Plug-In  -->
<svg version="1.1"
	 xmlns="http://www.w3.org/2000/svg" xmlns:xlink="http://www.w3.org/1999/xlink" xmlns:a="http://ns.adobe.com/AdobeSVGViewerExtensions/3.0/"
	 x="0px" y="0px" width="35.5673px" height="35.5673px" viewBox="0 0 35.5673 35.5673"
	 style="enable-background:new 0 0 35.5673 35.5673;" xml:space="preserve">
<style type="text/css">
	.st0{fill:none;stroke:#18b3d5;stroke-miterlimit:10;}
</style>
<defs>
</defs>
<g id="XMLID_15_">
	<path id="XMLID_21_" class="st0" d="M0.5,35.0673h30.6087c2.1863,0,3.9586-1.7723,3.9586-3.9586v-26.65
		c0-2.1863-1.7723-3.9586-3.9586-3.9586H0.5V35.0673z"/>
	<g id="XMLID_16_">
		<path id="XMLID_18_" class="st0" d="M18.4682,17.9966h-1.8976c-1.3011,0-2.3558-1.0547-2.3558-2.3558v-2.1905
			c0-1.3011,1.0547-2.3558,2.3558-2.3558h4.5464 M14.2148,24.8988h4.5464c1.3011,0,2.3558-1.0547,2.3558-2.3558v-2.1905
			c0-1.3011-1.0547-2.3558-2.3558-2.3558h-2.1908"/>
		<line id="XMLID_17_" class="st0" x1="17.7836" y1="9.651" x2="17.7836" y2="27.651"/>
	</g>
</g>
</svg>
