<!-- Generator: Adobe Illustrator 19.0.0, SVG Export Plug-In  -->
<svg version="1.1"
	 xmlns="http://www.w3.org/2000/svg" xmlns:xlink="http://www.w3.org/1999/xlink" xmlns:a="http://ns.adobe.com/AdobeSVGViewerExtensions/3.0/"
	 x="0px" y="0px" width="40.1704px" height="34.9521px" viewBox="0 0 40.1704 34.9521"
	 style="enable-background:new 0 0 40.1704 34.9521;" xml:space="preserve">
<style type="text/css">
	.st0{fill:none;stroke:#18b3d5;stroke-miterlimit:10;}
	.st1{fill:none;stroke:#18b3d5;stroke-linecap:round;stroke-miterlimit:10;}
</style>
<defs>
</defs>
<g id="XMLID_15_">
	<path id="XMLID_20_" class="st0" d="M18.3243,19.6393L4.8979,19.9036c-2.4289,0-4.3979-1.969-4.3979-4.3979V4.8979
		C0.5,2.469,2.469,0.5,4.8979,0.5h20.0764L18.3243,19.6393z"/>
	<line id="XMLID_19_" class="st1" x1="6.1704" y1="6.8123" x2="15.1704" y2="6.8123"/>
	<line id="XMLID_18_" class="st1" x1="6.1704" y1="9.8123" x2="13.1704" y2="9.8123"/>
	<line id="XMLID_17_" class="st1" x1="6.1704" y1="12.8123" x2="13.1704" y2="12.8123"/>
	<path id="XMLID_16_" class="st1" d="M35.0908,10.2018l-13.5171,0.3677l-6.8124,19.2428h10.5982l4.4328,4.4327l4.4327-4.4327h0.6841
		c2.429,0,4.7612-2.1761,4.7612-4.605V14.5996C39.6704,12.1707,37.5198,10.2018,35.0908,10.2018z"/>
</g>
</svg>
