<!-- Generator: Adobe Illustrator 19.0.0, SVG Export Plug-In  -->
<svg version="1.1"
	 xmlns="http://www.w3.org/2000/svg" xmlns:xlink="http://www.w3.org/1999/xlink" xmlns:a="http://ns.adobe.com/AdobeSVGViewerExtensions/3.0/"
	 x="0px" y="0px" width="38.3333px" height="38.3333px" viewBox="0 0 38.3333 38.3333"
	 style="enable-background:new 0 0 38.3333 38.3333;" xml:space="preserve">
<style type="text/css">
	.st0{fill:none;stroke:#f54a7e;stroke-miterlimit:10;}
</style>
<defs>
</defs>
<g id="XMLID_15_">
	<path id="XMLID_21_" class="st0" d="M37.8333,8.8709c0,2.9914-2.425,5.4165-5.4165,5.4165s-8.3709-5.3795-8.3709-8.3709
		S26.471,0.5,29.4624,0.5S37.8333,5.8795,37.8333,8.8709z"/>
	<g id="XMLID_17_">
		<path id="XMLID_20_" class="st0" d="M14.2874,32.4169c0,2.9914-2.425,5.4165-5.4165,5.4165S0.5,32.4538,0.5,29.4624
			s2.425-5.4165,5.4165-5.4165S14.2874,29.4254,14.2874,32.4169z"/>
		<path id="XMLID_19_" class="st0" d="M26.8438,19.8605c0,2.9914-2.425,5.4165-5.4165,5.4165s-8.3709-5.3795-8.3709-8.3709
			s2.425-5.4165,5.4165-5.4165S26.8438,16.869,26.8438,19.8605z"/>
		<line id="XMLID_18_" class="st0" x1="7.3937" y1="30.9396" x2="19.8816" y2="18.0694"/>
	</g>
	<line id="XMLID_16_" class="st0" x1="23.6931" y1="14.6403" x2="27.349" y2="10.9843"/>
</g>
</svg>
