<!-- Generator: Adobe Illustrator 19.0.0, SVG Export Plug-In  -->
<svg version="1.1"
	 xmlns="http://www.w3.org/2000/svg" xmlns:xlink="http://www.w3.org/1999/xlink" xmlns:a="http://ns.adobe.com/AdobeSVGViewerExtensions/3.0/"
	 x="0px" y="0px" width="39.9419px" height="17.563px" viewBox="0 0 39.9419 17.563"
	 style="enable-background:new 0 0 39.9419 17.563;" xml:space="preserve">
<style type="text/css">
	.st0{fill:none;stroke:#18b3d5;stroke-linecap:round;stroke-miterlimit:10;}
	.st1{fill:none;stroke:#18b3d5;stroke-miterlimit:10;}
	.st2{fill:none;}
</style>
<defs>
</defs>
<g id="XMLID_15_">
	<path id="XMLID_41_" class="st0" d="M2.8964,7.5248H2.1101C1.2209,7.5248,0.5,6.8039,0.5,5.9147V2.1101
		C0.5,1.2209,1.2209,0.5,2.1101,0.5h0.7863c0.8892,0,1.6101,0.7209,1.6101,1.6101v3.8046C4.5064,6.8039,3.7856,7.5248,2.8964,7.5248
		z"/>
	<path id="XMLID_40_" class="st0" d="M2.8964,16.3298H2.1101c-0.8892,0-1.6101-0.7209-1.6101-1.6101v-3.8046
		c0-0.8892,0.7209-1.6101,1.6101-1.6101h0.7863c0.8892,0,1.6101,0.7209,1.6101,1.6101v3.8046
		C4.5064,15.609,3.7856,16.3298,2.8964,16.3298z"/>
	<path id="XMLID_39_" class="st0" d="M13.0208,7.5248h-0.7863c-0.8892,0-1.6101-0.7209-1.6101-1.6101V2.1101
		c0-0.8892,0.7209-1.6101,1.6101-1.6101h0.7863c0.8892,0,1.6101,0.7209,1.6101,1.6101v3.8046
		C14.6309,6.8039,13.91,7.5248,13.0208,7.5248z"/>
	<g id="XMLID_36_">
		<line id="XMLID_38_" class="st1" x1="6.9419" y1="0.563" x2="6.9419" y2="8.563"/>
		<path id="XMLID_37_" class="st2" d="M7.9586,7.5248H7.1723c-0.8892,0-1.6101-0.7209-1.6101-1.6101V2.1101
			C5.5622,1.2209,6.2831,0.5,7.1723,0.5h0.7863c0.8892,0,1.6101,0.7209,1.6101,1.6101v3.8046
			C9.5686,6.8039,8.8478,7.5248,7.9586,7.5248z"/>
	</g>
	<g id="XMLID_33_">
		<line id="XMLID_35_" class="st1" x1="6.9419" y1="9.563" x2="6.9419" y2="17.563"/>
		<path id="XMLID_34_" class="st2" d="M7.9586,16.8077H7.1723c-0.8892,0-1.6101-0.7209-1.6101-1.6101V11.393
			c0-0.8892,0.7209-1.6101,1.6101-1.6101h0.7863c0.8892,0,1.6101,0.7209,1.6101,1.6101v3.8046
			C9.5686,16.0868,8.8478,16.8077,7.9586,16.8077z"/>
	</g>
	<g id="XMLID_30_">
		<line id="XMLID_32_" class="st1" x1="22.9419" y1="0.563" x2="22.9419" y2="8.563"/>
		<path id="XMLID_31_" class="st2" d="M23.1452,7.5248h-0.7863c-0.8892,0-1.6101-0.7209-1.6101-1.6101V2.1101
			c0-0.8892,0.7209-1.6101,1.6101-1.6101h0.7863c0.8892,0,1.6101,0.7209,1.6101,1.6101v3.8046
			C24.7553,6.8039,24.0344,7.5248,23.1452,7.5248z"/>
	</g>
	<g id="XMLID_27_">
		<line id="XMLID_29_" class="st1" x1="37.9419" y1="0.563" x2="37.9419" y2="8.563"/>
		<path id="XMLID_28_" class="st2" d="M38.3318,7.5248h-0.7863c-0.8892,0-1.6101-0.7209-1.6101-1.6101V2.1101
			c0-0.8892,0.7209-1.6101,1.6101-1.6101h0.7863c0.8892,0,1.6101,0.7209,1.6101,1.6101v3.8046
			C39.9419,6.8039,39.2211,7.5248,38.3318,7.5248z"/>
	</g>
	<g id="XMLID_24_">
		<line id="XMLID_26_" class="st1" x1="37.9419" y1="9.563" x2="37.9419" y2="16.563"/>
		<path id="XMLID_25_" class="st2" d="M38.3318,16.1446h-0.7863c-0.8892,0-1.6101-0.7209-1.6101-1.6101v-3.8046
			c0-0.8892,0.7209-1.6101,1.6101-1.6101h0.7863c0.8892,0,1.6101,0.7209,1.6101,1.6101v3.8046
			C39.9419,15.4237,39.2211,16.1446,38.3318,16.1446z"/>
	</g>
	<path id="XMLID_23_" class="st0" d="M18.083,7.5248h-0.7863c-0.8892,0-1.6101-0.7209-1.6101-1.6101V2.1101
		c0-0.8892,0.7209-1.6101,1.6101-1.6101h0.7863c0.8892,0,1.6101,0.7209,1.6101,1.6101v3.8046
		C19.6931,6.8039,18.9722,7.5248,18.083,7.5248z"/>
	<path id="XMLID_22_" class="st0" d="M13.0208,16.3298h-0.7863c-0.8892,0-1.6101-0.7209-1.6101-1.6101v-3.8046
		c0-0.8892,0.7209-1.6101,1.6101-1.6101h0.7863c0.8892,0,1.6101,0.7209,1.6101,1.6101v3.8046
		C14.6309,15.609,13.91,16.3298,13.0208,16.3298z"/>
	<path id="XMLID_21_" class="st0" d="M18.083,16.3298h-0.7863c-0.8892,0-1.6101-0.7209-1.6101-1.6101v-3.8046
		c0-0.8892,0.7209-1.6101,1.6101-1.6101h0.7863c0.8892,0,1.6101,0.7209,1.6101,1.6101v3.8046
		C19.6931,15.609,18.9722,16.3298,18.083,16.3298z"/>
	<path id="XMLID_20_" class="st0" d="M28.2074,7.5248h-0.7863c-0.8892,0-1.6101-0.7209-1.6101-1.6101V2.1101
		c0-0.8892,0.7209-1.6101,1.6101-1.6101h0.7863c0.8892,0,1.6101,0.7209,1.6101,1.6101v3.8046
		C29.8175,6.8039,29.0966,7.5248,28.2074,7.5248z"/>
	<path id="XMLID_19_" class="st0" d="M33.2696,7.5248h-0.7863c-0.8892,0-1.6101-0.7209-1.6101-1.6101V2.1101
		c0-0.8892,0.7209-1.6101,1.6101-1.6101h0.7863c0.8892,0,1.6101,0.7209,1.6101,1.6101v3.8046
		C34.8797,6.8039,34.1588,7.5248,33.2696,7.5248z"/>
	<path id="XMLID_18_" class="st0" d="M28.2074,16.3298h-0.7863c-0.8892,0-1.6101-0.7209-1.6101-1.6101v-3.8046
		c0-0.8892,0.7209-1.6101,1.6101-1.6101h0.7863c0.8892,0,1.6101,0.7209,1.6101,1.6101v3.8046
		C29.8175,15.609,29.0966,16.3298,28.2074,16.3298z"/>
	<path id="XMLID_17_" class="st0" d="M23.1452,16.3298h-0.7863c-0.8892,0-1.6101-0.7209-1.6101-1.6101v-3.8046
		c0-0.8892,0.7209-1.6101,1.6101-1.6101h0.7863c0.8892,0,1.6101,0.7209,1.6101,1.6101v3.8046
		C24.7553,15.609,24.0344,16.3298,23.1452,16.3298z"/>
	<path id="XMLID_16_" class="st0" d="M33.2696,16.3298h-0.7863c-0.8892,0-1.6101-0.7209-1.6101-1.6101v-3.8046
		c0-0.8892,0.7209-1.6101,1.6101-1.6101h0.7863c0.8892,0,1.6101,0.7209,1.6101,1.6101v3.8046
		C34.8797,15.609,34.1588,16.3298,33.2696,16.3298z"/>
</g>
</svg>
