<!-- Generator: Adobe Illustrator 19.0.0, SVG Export Plug-In  -->
<svg version="1.1"
	 xmlns="http://www.w3.org/2000/svg" xmlns:xlink="http://www.w3.org/1999/xlink" xmlns:a="http://ns.adobe.com/AdobeSVGViewerExtensions/3.0/"
	 x="0px" y="0px" width="51.3534px" height="51.3534px" viewBox="0 0 51.3534 51.3534"
	 style="enable-background:new 0 0 51.3534 51.3534;" xml:space="preserve">
<style type="text/css">
	.st0{fill:none;stroke:#18b3d5;stroke-linecap:round;stroke-miterlimit:10;}
	.st1{clip-path:url(#XMLID_28_);}
	.st2{clip-path:url(#XMLID_29_);}
</style>
<defs>
</defs>
<g id="XMLID_15_">
	<g id="XMLID_24_">
		<path id="XMLID_27_" class="st0" d="M26.6051,29.1325L16.1424,39.5952c-0.7056,0.7056-1.8495,0.7056-2.5551,0l-1.6499-1.6499
			c-0.7056-0.7056-0.7056-1.8495,0-2.5551l10.4628-10.4628L26.6051,29.1325z"/>
		<line id="XMLID_26_" class="st0" x1="24.4243" y1="26.862" x2="34.3238" y2="16.9625"/>
		<path id="XMLID_25_" class="st0" d="M40.0012,13.7342l-2.7287,4.3131c-0.3703,0.5853-1.1878,0.6761-1.6775,0.1864l-2.5424-2.5424
			c-0.4897-0.4897-0.3989-1.3072,0.1864-1.6775l4.3131-2.7287L40.0012,13.7342z"/>
	</g>
	<g id="XMLID_16_">
		<defs>
			<path id="XMLID_17_" d="M25.6767,0L0,25.6767l25.6767,25.6767l25.6767-25.6767L25.6767,0z M17.9648,25.6767l7.7119-7.7119
				l7.7119,7.7119l-7.7119,7.7119L17.9648,25.6767z"/>
		</defs>
		<clipPath id="XMLID_28_">
			<use xlink:href="#XMLID_17_"  style="overflow:visible;"/>
		</clipPath>
		<g id="XMLID_20_" class="st1">
			<line id="XMLID_23_" class="st0" x1="33.034" y1="33.0341" x2="18.3194" y2="18.3195"/>
			<polyline id="XMLID_22_" class="st0" points="35.4864,40.0013 30.9717,35.4865 35.4864,30.9718 40.0012,35.4865 			"/>
			<polyline id="XMLID_21_" class="st0" points="15.9229,11.4082 20.4377,15.923 15.9229,20.4377 11.4082,15.923 			"/>
		</g>
	</g>
</g>
</svg>
