<!-- Generator: Adobe Illustrator 19.0.0, SVG Export Plug-In  -->
<svg version="1.1"
	 xmlns="http://www.w3.org/2000/svg" xmlns:xlink="http://www.w3.org/1999/xlink" xmlns:a="http://ns.adobe.com/AdobeSVGViewerExtensions/3.0/"
	 x="0px" y="0px" width="22px" height="36px" viewBox="0 0 22 36" style="enable-background:new 0 0 22 36;" xml:space="preserve">
<style type="text/css">
	.st0{fill:none;stroke:#f54a7e;stroke-miterlimit:10;}
</style>
<defs>
</defs>
<g id="XMLID_15_">
	<path id="XMLID_19_" class="st0" d="M17.8301,21.5c2.0184,0,3.6699-1.6514,3.6699-3.6699V0.5h-21v17.2437
		c0,2.066,1.6904,3.7563,3.7563,3.7563H9.5v7.4449C9.5,30.9083,7.9083,32.5,5.9449,32.5H1.9402C1.1448,32.5,0.5,33.1448,0.5,33.9402
		V35.5h21v-1.5598c0-0.7954-0.6448-1.4402-1.4402-1.4402h-4.0046c-1.9635,0-3.5551-1.5917-3.5551-3.5551V21.5H17.8301z"/>
	<g id="XMLID_16_">
		<polyline id="XMLID_18_" class="st0" points="8.218,10.4789 10.5,7 10.5,16 "/>
		<line id="XMLID_17_" class="st0" x1="8" y1="16.5" x2="13" y2="16.5"/>
	</g>
</g>
</svg>
