<!-- Generator: Adobe Illustrator 19.0.0, SVG Export Plug-In  -->
<svg version="1.1"
	 xmlns="http://www.w3.org/2000/svg" xmlns:xlink="http://www.w3.org/1999/xlink" xmlns:a="http://ns.adobe.com/AdobeSVGViewerExtensions/3.0/"
	 x="0px" y="0px" width="45.5735px" height="36.3691px" viewBox="0 0 45.5735 36.3691"
	 style="enable-background:new 0 0 45.5735 36.3691;" xml:space="preserve">
<style type="text/css">
	.st0{clip-path:url(#XMLID_29_);fill:none;stroke:#f54a7e;stroke-miterlimit:10;}
	.st1{fill:none;stroke:#f54a7e;stroke-miterlimit:10;}
	.st2{clip-path:url(#XMLID_30_);fill:none;stroke:#f54a7e;stroke-miterlimit:10;}
</style>
<defs>
</defs>
<g id="XMLID_15_">
	<g id="XMLID_22_">
		<defs>
			<rect id="XMLID_23_" x="5.1022" y="0.5" width="35.3691" height="35.3691"/>
		</defs>
		<clipPath id="XMLID_29_">
			<use xlink:href="#XMLID_23_"  style="overflow:visible;"/>
		</clipPath>
		<path id="XMLID_24_" class="st0" d="M45.0735,10.91c0,2.3675-1.9192,4.2867-4.2867,4.2867c-2.3675,0-4.2867-1.9192-4.2867-4.2867
			s1.9192-4.2867,4.2867-4.2867C43.1542,6.6233,45.0735,8.5425,45.0735,10.91z M40.7867,20.6233
			c-2.3675,0-4.2867,1.9192-4.2867,4.2867s1.9192,4.2867,4.2867,4.2867c2.3675,0,4.2867-1.9192,4.2867-4.2867
			S43.1542,20.6233,40.7867,20.6233z M4.7867,6.6233C2.4192,6.6233,0.5,8.5425,0.5,10.91s1.9192,4.2867,4.2867,4.2867
			s4.2867-1.9192,4.2867-4.2867S7.1542,6.6233,4.7867,6.6233z M4.7867,20.6233C2.4192,20.6233,0.5,22.5425,0.5,24.91
			s1.9192,4.2867,4.2867,4.2867s4.2867-1.9192,4.2867-4.2867S7.1542,20.6233,4.7867,20.6233z"/>
	</g>
	<rect id="XMLID_21_" x="5.1022" y="0.5" class="st1" width="35.3691" height="35.3691"/>
	<line id="XMLID_20_" class="st1" x1="40.3927" y1="6.6164" x2="43.3927" y2="6.6164"/>
	<line id="XMLID_19_" class="st1" x1="40.3927" y1="20.6164" x2="43.3927" y2="20.6164"/>
	<line id="XMLID_18_" class="st1" x1="2.3927" y1="6.6164" x2="5.3927" y2="6.6164"/>
	<line id="XMLID_17_" class="st1" x1="2.3927" y1="20.6164" x2="5.3927" y2="20.6164"/>
	<line id="XMLID_16_" class="st1" x1="9.3927" y1="24.6164" x2="36.3927" y2="10.91"/>
</g>
</svg>
